<svg width="34" height="36" viewBox="0 0 34 36" fill="none" xmlns="http://www.w3.org/2000/svg">
<path d="M10.5 23.4998C9.44451 23.5122 8.54105 22.8182 8.38396 21.8737L8.16535 20.6866C7.74008 18.3418 5.71111 16.5025 3.12029 16.1159L1.80864 15.9181C0.766836 15.7697 0 14.9566 0 14.0029C0 13.0493 0.766836 12.2362 1.80864 12.0878L3.12029 11.89C5.70945 11.5036 7.73818 9.66726 8.16535 7.324L8.38396 6.13689C8.54791 5.19402 9.44626 4.5 10.5 4.5C11.5537 4.5 12.4521 5.19402 12.616 6.13689L12.8347 7.324C13.2616 9.66729 15.2906 11.5034 17.8797 11.89L19.1914 12.0878C20.2332 12.2362 21 13.0493 21 14.0029C21 14.9566 20.2332 15.7697 19.1914 15.9181L17.8797 16.1159C15.2906 16.5023 13.2618 18.3386 12.8347 20.6819L12.616 21.869C12.4606 22.815 11.5571 23.5122 10.5 23.4998ZM9.89201 7.58516C9.62387 9.05356 8.85532 10.4092 7.69228 11.4618C6.52923 12.5144 5.03141 13.21 3.4089 13.4526L2.09725 13.6505C1.90425 13.6768 1.7625 13.8267 1.7625 14.0029C1.7625 14.1791 1.90426 14.3291 2.09725 14.3553L3.4089 14.5532C5.03137 14.7959 6.52919 15.4914 7.69228 16.544C8.85536 17.5966 9.6239 18.9522 9.89201 20.4207L10.1106 21.6078C10.1396 21.7824 10.3053 21.9107 10.5 21.9107C10.6947 21.9107 10.8604 21.7824 10.8894 21.6078L11.108 20.4207C11.3761 18.9523 12.1447 17.5967 13.3077 16.544C14.4708 15.4914 15.9686 14.7958 17.5911 14.5532L18.9028 14.3553C19.0958 14.3291 19.2375 14.1791 19.2375 14.0029C19.2375 13.8267 19.0958 13.6768 18.9028 13.6505L17.5911 13.4526C15.9686 13.21 14.4708 12.5144 13.3077 11.4618C12.1447 10.4092 11.3761 9.0536 11.108 7.58516L10.8894 6.39806C10.8604 6.22339 10.6947 6.0951 10.5 6.0951C10.3053 6.0951 10.1396 6.22339 10.1106 6.39806L9.89201 7.58516Z" fill="#FFB2D2"/>
<path d="M25 35.4999C24.1735 35.5101 23.4648 34.9088 23.3384 34.0922L23.0891 32.5752V32.5735C22.9063 31.4665 22.0371 30.5969 20.9305 30.4141L19.414 30.1647H19.4123C18.5977 30.0315 18 29.3276 18 28.5025C18 27.6774 18.5977 26.9735 19.4123 26.8403L20.9288 26.5909H20.9305C22.0371 26.4081 22.9063 25.5386 23.0891 24.4315L23.3384 22.9145V22.9128C23.4716 22.0979 24.1752 21.5 25 21.5C25.8248 21.5 26.5284 22.0979 26.6616 22.9128L26.9109 24.4298V24.4315C27.0937 25.5385 27.9629 26.4081 29.0695 26.5909L30.586 26.8403H30.5877C31.4023 26.9735 32 27.6774 32 28.5025C32 29.3276 31.4023 30.0315 30.5877 30.1647L29.0712 30.4141H29.0695C27.9629 30.5969 27.0937 31.4664 26.9109 32.5735L26.6616 34.0905V34.0922C26.5353 34.9088 25.8265 35.5101 25 35.4999ZM20.0953 28.5025L21.2139 28.687C23.0633 28.9911 24.5115 30.4398 24.8155 32.2899L24.9999 33.4089L25.1843 32.2899C25.4883 30.4398 26.9365 28.9911 28.7859 28.687L29.9045 28.5025L28.7859 28.318C26.9365 28.014 25.4883 26.5653 25.1843 24.7152L24.9999 23.5962L24.8155 24.7152C24.5115 26.5653 23.0633 28.014 21.2139 28.318L20.0953 28.5025Z" fill="#0B86CA"/>
<path d="M29 10.4999C28.289 10.5088 27.6791 9.99066 27.5709 9.28626L27.4521 8.54993V8.55171C27.3263 7.78167 26.7234 7.17842 25.9539 7.05242L25.2181 6.93355H25.2199C24.5159 6.82177 24 6.21497 24 5.50349C24 4.792 24.5159 4.18521 25.2199 4.07343L25.9557 3.95455H25.9539C26.7234 3.82858 27.3262 3.2253 27.4521 2.45527L27.5709 1.71894V1.72071C27.6826 1.01631 28.289 0.5 29 0.5C29.711 0.5 30.3174 1.01631 30.4291 1.72071L30.5479 2.45704V2.45527C30.6737 3.2253 31.2766 3.82855 32.0461 3.95455L32.7819 4.07343H32.7801C33.4841 4.18521 34 4.792 34 5.50349C34 6.21497 33.4841 6.82176 32.7801 6.93355L32.0443 7.05242H32.0461C31.2766 7.1784 30.6738 7.78167 30.5479 8.5517L30.4291 9.28804V9.28626C30.3209 9.99066 29.711 10.5087 29 10.4999ZM27.0851 5.50349C27.9468 5.87077 28.633 6.55741 29 7.41975C29.367 6.55746 30.0532 5.87077 30.9149 5.50349C30.0532 5.13622 29.367 4.44957 29 3.58724C28.633 4.44953 27.9468 5.13621 27.0851 5.50349Z" fill="#BFB2FF"/>
</svg>
